HIERARCHY
ROOT Hips
{
 OFFSET 0.000000 0.000000 0.000000
 CHANNELS 6 Xposition Yposition Zposition Yrotation Xrotation Zrotation
 JOINT Chest
 {
  OFFSET 0.000000 9.857222 0.000240
  CHANNELS 3 Yrotation Xrotation Zrotation
  JOINT Chest2
  {
   OFFSET 0.000000 10.876940 -0.000436
   CHANNELS 3 Yrotation Xrotation Zrotation
   JOINT Chest3
   {
    OFFSET 0.000000 9.827798 0.000000
    CHANNELS 3 Yrotation Xrotation Zrotation
    JOINT Chest4
    {
     OFFSET 0.000000 9.827798 0.000000
     CHANNELS 3 Yrotation Xrotation Zrotation
     JOINT Neck
     {
      OFFSET 0.000000 13.831992 0.000000
      CHANNELS 3 Yrotation Xrotation Zrotation
      JOINT Head
      {
       OFFSET 0.000000 9.147643 -0.001036
       CHANNELS 3 Yrotation Xrotation Zrotation
       End Site
       {
        OFFSET 0.000000 17.515799 -0.000541
       }
      }
     }
     JOINT RightCollar
     {
      OFFSET -3.001579 7.717577 0.000000
      CHANNELS 3 Yrotation Xrotation Zrotation
      JOINT RightShoulder
      {
       OFFSET -14.002642 0.000000 0.000000
       CHANNELS 3 Yrotation Xrotation Zrotation
       JOINT RightElbow
       {
        OFFSET -30.053852 0.000000 0.000000
        CHANNELS 3 Yrotation Xrotation Zrotation
        JOINT RightWrist
        {
         OFFSET -24.564923 0.000000 -0.000000
         CHANNELS 3 Yrotation Xrotation Zrotation
         End Site
         {
          OFFSET -18.334355 0.000000 0.000000
         }
        }
       }
      }
     }
     JOINT LeftCollar
     {
      OFFSET 3.001579 7.717577 0.000000
      CHANNELS 3 Yrotation Xrotation Zrotation
      JOINT LeftShoulder
      {
       OFFSET 14.002642 0.000000 0.000000
       CHANNELS 3 Yrotation Xrotation Zrotation
       JOINT LeftElbow
       {
        OFFSET 30.053852 0.000000 0.000000
        CHANNELS 3 Yrotation Xrotation Zrotation
        JOINT LeftWrist
        {
         OFFSET 24.564923 0.000000 -0.000000
         CHANNELS 3 Yrotation Xrotation Zrotation
         End Site
         {
          OFFSET 18.334355 0.000000 0.000000
         }
        }
       }
      }
     }
    }
   }
  }
 }
 JOINT RightHip
 {
  OFFSET -8.003235 -0.001175 -0.000120
  CHANNELS 3 Yrotation Xrotation Zrotation
  JOINT RightKnee
  {
   OFFSET 0.000000 -41.759727 0.000113
   CHANNELS 3 Yrotation Xrotation Zrotation
   JOINT RightAnkle
   {
    OFFSET 0.000000 -40.728748 0.000159
    CHANNELS 3 Yrotation Xrotation Zrotation
    JOINT RightToe
    {
     OFFSET 0.000000 -6.515296 14.732841
     CHANNELS 3 Yrotation Xrotation Zrotation
     End Site
     {
      OFFSET 0.000000 -1.502839 6.412115
     }
    }
   }
  }
 }
 JOINT LeftHip
 {
  OFFSET 8.003235 -0.001175 -0.000120
  CHANNELS 3 Yrotation Xrotation Zrotation
  JOINT LeftKnee
  {
   OFFSET 0.000000 -41.759727 0.000113
   CHANNELS 3 Yrotation Xrotation Zrotation
   JOINT LeftAnkle
   {
    OFFSET 0.000000 -40.728748 0.000159
    CHANNELS 3 Yrotation Xrotation Zrotation
    JOINT LeftToe
    {
     OFFSET 0.000000 -6.515296 14.732841
     CHANNELS 3 Yrotation Xrotation Zrotation
     End Site
     {
      OFFSET 0.000000 -1.502839 6.412115
     }
    }
   }
  }
 }
}
MOTION
Frames: 17
Frame Time: 0.016667
19.201918 90.483125 13.232857 -31.180399 -11.383709 -0.480943 -0.625760 0.755108 -1.127497 -0.235567 0.307732 -0.471785 -0.235567 0.307732 -0.471785 -0.176438 0.230981 -0.353719 -1.777580 31.913144 0.367145 -3.202980 23.104821 0.922542 14.949139 24.218586 4.938894 95.832806 22.736022 -1.539140 -4.077499 -0.309384 -2.375574 4.547693 4.416146 -5.458715 -22.296039 25.755705 -6.724189 -53.165458 3.029642 11.785526 -18.030056 -15.505678 5.862211 2.685116 7.712473 2.975166 -7.388956 19.264669 -5.111588 1.181890 -3.485964 3.691482 -0.629742 -4.268931 0.922257 -0.255096 0.176774 -0.125180 1.675108 8.394365 2.466148 -0.201131 6.280710 0.416920 1.094647 -3.008773 -2.174593 0.030978 0.035065 0.131075
19.218700 90.469970 13.294145 -31.196833 -11.193020 -0.474597 -0.557304 0.530868 -1.216351 -0.209507 0.211769 -0.510249 -0.209507 0.211769 -0.510249 -0.156953 0.159002 -0.382614 -1.737584 32.036402 0.459143 -3.145435 23.335416 1.076431 14.062227 23.979555 4.252181 94.106547 25.800674 -3.562021 -4.076322 -1.353494 -3.623144 4.461027 4.042928 -5.745347 -21.973579 26.141222 -5.793848 -51.960542 4.888261 14.212294 -18.317140 -16.015491 7.005122 2.591951 7.576047 2.875527 -7.279497 19.071868 -5.105647 1.038919 -3.416209 3.718765 -0.621344 -4.318251 0.943168 -0.265395 0.179934 -0.119323 1.466955 8.150037 2.440739 -0.090067 6.475917 0.326552 1.118688 -3.159298 -2.133085 0.038717 0.042775 0.127434
19.243434 90.457945 13.373142 -31.225274 -10.982665 -0.462060 -0.460059 0.356203 -1.322491 -0.170843 0.135848 -0.553896 -0.170843 0.135848 -0.553896 -0.128009 0.102041 -0.415384 -1.697989 32.124862 0.563365 -3.090440 23.501741 1.252907 12.994208 23.441057 3.521221 92.095727 28.527978 -5.658672 -4.001088 -2.420498 -4.799218 4.337585 3.590547 -6.008321 -21.633982 26.197175 -4.803548 -50.209344 7.177413 16.452560 -18.792247 -17.001467 8.385442 2.508774 7.525527 2.947956 -7.166920 18.857304 -5.122068 0.900819 -3.333517 3.760156 -0.598316 -4.376328 0.958708 -0.275422 0.179523 -0.109028 1.332397 7.895629 2.382096 0.021312 6.662740 0.300838 1.100767 -3.306405 -2.104957 0.039733 0.045989 0.119484
19.267021 90.448615 13.467298 -31.236701 -10.743917 -0.461481 -0.353431 0.119565 -1.442608 -0.129317 0.033025 -0.604832 -0.129317 0.033025 -0.604832 -0.096955 0.024897 -0.453617 -1.652329 32.258686 0.676668 -3.025404 23.752403 1.443645 11.898358 22.694764 2.866634 89.886684 30.812900 -7.650822 -3.852385 -3.517501 -5.768628 4.204348 3.204261 -6.242062 -21.121555 26.202920 -3.717869 -48.344877 9.209905 18.535686 -19.288891 -17.645114 9.778419 2.321922 7.317899 3.160600 -7.066959 18.626117 -5.117759 0.795709 -3.252244 3.777406 -0.615027 -4.434320 0.974095 -0.269371 0.167799 -0.088924 1.208639 7.635824 2.306329 0.121338 6.816256 0.316371 1.112609 -3.442571 -2.087529 0.039003 0.050559 0.112026
19.285012 90.439921 13.570726 -31.224120 -10.449008 -0.467249 -0.228974 -0.164430 -1.581086 -0.079600 -0.091470 -0.664920 -0.079600 -0.091470 -0.664920 -0.059800 -0.068516 -0.498702 -1.612336 32.421181 0.812626 -2.973036 24.057088 1.674849 10.724520 21.713515 2.277113 87.738960 32.558736 -9.368344 -3.729391 -4.403975 -6.631103 4.129484 2.867502 -6.233461 -20.351962 25.930320 -2.445912 -46.575774 11.463042 20.076362 -19.734759 -18.384635 11.549051 1.997417 7.249764 3.393719 -6.938806 18.349065 -5.090114 0.680779 -3.163760 3.795110 -0.664656 -4.504365 0.978408 -0.258017 0.151952 -0.064603 1.042121 7.332000 2.248806 0.218380 6.958312 0.304735 1.115635 -3.579728 -2.062723 0.040638 0.055977 0.106480
19.288685 90.431669 13.670931 -31.177610 -10.126660 -0.484031 -0.131563 -0.521206 -1.722680 -0.044272 -0.245357 -0.727649 -0.044272 -0.245357 -0.727649 -0.033496 -0.183966 -0.545754 -1.569310 32.641939 0.939590 -2.912712 24.469616 1.888662 9.469513 20.772554 1.696737 85.693852 33.703310 -11.110380 -3.625192 -4.930820 -7.231394 4.025834 2.609821 -6.137433 -19.436889 25.303631 -1.157799 -44.701704 13.900801 21.407328 -20.015933 -19.095965 12.974957 1.634080 7.250884 3.837328 -6.759850 18.047512 -5.033055 0.525203 -3.051744 3.826639 -0.700216 -4.589531 0.966953 -0.246924 0.128508 -0.044327 0.809506 7.008062 2.224155 0.263371 7.089737 0.235721 1.207803 -3.715327 -2.026332 0.047640 0.064488 0.106228
19.280296 90.424551 13.771904 -31.102078 -9.793744 -0.510644 -0.063111 -0.934694 -1.864392 -0.022185 -0.423155 -0.793264 -0.022185 -0.423155 -0.793264 -0.017188 -0.317338 -0.594961 -1.526733 32.915442 1.051188 -2.849599 24.979617 2.074552 8.202490 20.030565 1.172427 83.755958 34.245289 -12.889940 -3.605190 -5.062082 -7.721521 3.865810 2.259187 -5.994253 -18.389264 24.443550 0.151960 -43.168899 15.948768 22.460556 -19.851065 -19.088459 13.870444 1.371844 7.139024 4.322013 -6.555186 17.745204 -4.948484 0.294879 -2.936718 3.861471 -0.757303 -4.658512 0.944861 -0.214959 0.082916 -0.020682 0.570274 6.687997 2.244065 0.284870 7.193457 0.121849 1.271058 -3.832142 -1.976299 0.052800 0.064471 0.104979
19.257368 90.419884 13.873771 -31.040639 -9.521446 -0.520701 -0.022831 -1.376892 -1.995192 -0.014334 -0.612558 -0.853168 -0.014334 -0.612558 -0.853168 -0.011606 -0.459399 -0.639884 -1.494628 33.244936 1.121008 -2.797771 25.592588 2.187187 7.185585 19.326018 0.800865 81.864007 34.481830 -14.474864 -3.683382 -5.068107 -8.075545 3.738196 1.932240 -5.857799 -17.344210 23.563479 1.313951 -42.098927 17.089347 23.167861 -19.199789 -18.054630 14.239351 1.242765 7.067984 4.560600 -6.354751 17.514963 -4.895209 0.051390 -2.838058 3.914704 -0.754307 -4.742805 0.922302 -0.208236 0.055102 -0.013991 0.391444 6.443609 2.271448 0.246708 7.277363 -0.011899 1.341953 -3.945934 -1.917662 0.058812 0.063116 0.101566
19.223429 90.416503 13.981416 -31.049569 -9.293404 -0.515612 0.038949 -1.847174 -2.102760 0.005898 -0.817987 -0.900089 0.005898 -0.817987 -0.900089 0.003219 -0.613500 -0.675048 -1.500616 33.619104 1.153937 -2.807343 26.288461 2.239003 6.177711 18.559819 0.449120 80.182509 34.564892 -15.803438 -3.753202 -5.166342 -8.256574 3.599776 1.797741 -5.654464 -16.616513 22.824389 2.115287 -40.827759 17.717458 24.063516 -18.273520 -16.616150 14.004540 1.173821 7.073133 4.579274 -6.120482 17.331204 -4.856141 -0.149377 -2.749184 3.964456 -0.762268 -4.830079 0.904691 -0.209817 0.033220 -0.015306 0.353541 6.271470 2.313983 0.221636 7.324470 -0.146582 1.335525 -4.046859 -1.847863 0.063105 0.054881 0.091545
19.180171 90.410186 14.087062 -31.139116 -9.145493 -0.512486 0.109663 -2.259821 -2.184894 0.034510 -1.001499 -0.932996 0.034510 -1.001499 -0.932996 0.024353 -0.751179 -0.699673 -1.524183 33.971227 1.157498 -2.844447 26.943015 2.241487 5.177032 18.111878 0.008198 78.266078 34.498670 -17.418106 -3.789217 -5.334863 -8.369097 3.443228 1.656238 -5.417180 -16.317008 22.119215 2.495742 -39.215330 17.955945 25.107209 -17.185466 -14.767159 13.444700 1.174035 7.054773 4.443586 -5.817475 17.229035 -4.808709 -0.368206 -2.667736 4.012862 -0.751533 -4.923955 0.887919 -0.212368 0.025530 -0.019892 0.394953 6.204527 2.376491 0.278977 7.340338 -0.277436 1.278477 -4.148798 -1.767321 0.066081 0.055653 0.074899
19.137644 90.403712 14.193630 -31.312365 -9.125511 -0.515628 0.179019 -2.520582 -2.248089 0.064239 -1.117580 -0.957417 0.064239 -1.117580 -0.957417 0.046427 -0.838288 -0.717923 -1.535992 34.232531 1.148681 -2.860573 27.428236 2.222240 4.356800 17.795739 -0.361083 76.006951 34.373017 -19.165246 -3.831462 -5.481568 -8.537446 3.315134 1.483071 -5.146393 -16.090020 21.358390 2.775383 -37.653151 17.833515 25.931694 -15.986004 -12.734806 12.980976 1.206914 7.130860 4.216305 -5.446298 17.252319 -4.764079 -0.617998 -2.595813 4.078942 -0.714453 -5.007410 0.862148 -0.205849 0.022317 -0.023786 0.476936 6.286034 2.427268 0.378368 7.334270 -0.362105 1.264239 -4.249132 -1.698028 0.060943 0.060120 0.052208
19.100153 90.402359 14.305453 -31.538692 -9.219103 -0.532431 0.247452 -2.625189 -2.289818 0.095287 -1.164406 -0.972780 0.095287 -1.164406 -0.972780 0.069609 -0.873459 -0.729379 -1.536660 34.404742 1.137168 -2.857987 27.747642 2.198574 3.747653 17.167936 -0.603593 73.648550 34.242506 -20.631850 -3.928500 -5.512996 -8.648606 3.183446 1.367993 -4.923858 -15.684635 20.866819 3.090011 -35.993198 17.559407 26.995277 -14.815274 -11.276922 12.809959 1.300126 7.099445 3.980271 -5.083263 17.389242 -4.733057 -0.803997 -2.541883 4.151636 -0.696429 -5.066723 0.844053 -0.190503 0.009322 -0.030568 0.580445 6.496976 2.473981 0.480920 7.309715 -0.412902 1.276037 -4.339041 -1.636304 0.052694 0.058550 0.027959
19.067851 90.404358 14.409819 -31.828351 -9.299149 -0.567116 0.330270 -2.648715 -2.280436 0.136268 -1.177588 -0.967916 0.136268 -1.177588 -0.967916 0.100332 -0.883409 -0.725649 -1.544933 34.512468 1.104759 -2.867327 27.946901 2.140068 3.067808 16.277919 -0.946294 71.344825 34.150852 -21.830967 -4.073130 -5.539335 -8.688358 3.046698 1.238796 -4.752668 -15.209742 20.600362 3.390546 -34.420591 16.964832 27.944975 -13.783668 -10.537502 13.243430 1.463471 7.085323 3.817941 -4.677279 17.497964 -4.676155 -0.918416 -2.485378 4.219325 -0.715308 -5.116204 0.832153 -0.166723 -0.004643 -0.039122 0.672739 6.698139 2.552350 0.603346 7.281542 -0.495429 1.329811 -4.425778 -1.559290 0.046594 0.055666 0.006193
19.035160 90.408457 14.495556 -32.170975 -9.395105 -0.612342 0.449582 -2.611767 -2.226687 0.197392 -1.167476 -0.949637 0.197392 -1.167476 -0.949637 0.146225 -0.875916 -0.711826 -1.557806 34.579002 1.065608 -2.884644 28.069607 2.070951 2.226810 15.788978 -1.423036 68.829186 33.794629 -23.391169 -4.248323 -5.626943 -8.759908 2.932713 1.105496 -4.559410 -14.744768 20.277221 3.670712 -32.894807 16.353862 28.701981 -13.008209 -10.798402 14.102306 1.635573 7.317618 3.741828 -4.202654 17.604517 -4.576145 -1.018492 -2.419480 4.274129 -0.774530 -5.166050 0.811334 -0.124028 -0.010247 -0.040364 0.723766 6.909759 2.655602 0.773279 7.259522 -0.599523 1.409986 -4.507635 -1.480420 0.040809 0.050104 -0.013221
18.999663 90.415862 14.557058 -32.539490 -9.413458 -0.671025 0.613867 -2.541399 -2.158552 0.277171 -1.139410 -0.934745 0.277171 -1.139410 -0.934745 0.206129 -0.854984 -0.700519 -1.552813 34.581193 1.062474 -2.875405 28.073445 2.064772 1.461223 15.276507 -1.804358 66.090299 33.234559 -25.028970 -4.311510 -5.946760 -8.851704 2.791165 0.954575 -4.332473 -14.074752 19.812135 4.163723 -31.557463 15.619068 29.309488 -12.470939 -11.559546 15.058036 1.720042 7.682800 3.768225 -3.689861 17.622799 -4.433071 -1.119960 -2.355224 4.320511 -0.841659 -5.200957 0.773416 -0.056873 -0.018964 -0.027632 0.739015 7.034490 2.786981 0.952730 7.233635 -0.717148 1.489822 -4.559474 -1.408965 0.030098 0.028452 -0.030177
18.960753 90.420457 14.600028 -32.888515 -9.302486 -0.699775 0.793248 -2.494504 -2.111098 0.366173 -1.128161 -0.921695 0.366173 -1.128161 -0.921695 0.272920 -0.846676 -0.690573 -1.540957 34.553341 1.079636 -2.856782 28.021922 2.094313 0.769358 14.711672 -2.115994 63.235704 32.512866 -26.595403 -4.233775 -6.519779 -8.903878 2.635786 0.808723 -4.088334 -13.359086 19.262447 4.725197 -30.264272 14.712560 29.744073 -12.027041 -12.062341 15.914223 1.719037 7.928864 3.739556 -3.308921 17.515128 -4.327613 -1.196103 -2.324266 4.355040 -0.831850 -5.231315 0.746319 -0.016856 -0.008448 -0.027142 0.727229 7.010509 2.885208 1.109819 7.229643 -0.833241 1.588819 -4.627078 -1.346587 0.022123 0.020503 -0.042589
18.923435 90.422674 14.641191 -33.154076 -9.178450 -0.706706 0.969277 -2.419896 -2.087465 0.459442 -1.114758 -0.911723 0.459442 -1.114758 -0.911723 0.342908 -0.836757 -0.682933 -1.535610 34.509508 1.117135 -2.852325 27.941521 2.160936 0.008151 14.219302 -2.467015 60.480934 31.479100 -28.060579 -4.162370 -7.040685 -8.892320 2.476992 0.772746 -3.776405 -12.982521 18.603105 5.097475 -28.580168 13.929170 30.108957 -11.608418 -12.308914 16.677992 1.637949 8.145693 3.520383 -3.127583 17.395827 -4.305015 -1.213008 -2.309262 4.402788 -0.791464 -5.260935 0.739990 0.009466 0.009873 -0.038549 0.632548 6.952981 2.931701 1.209376 7.254252 -0.921604 1.725985 -4.709306 -1.302082 0.012704 0.019484 -0.052530
